<?xml version="1.0" standalone="no"?>
<!DOCTYPE svg PUBLIC "-//W3C//DTD SVG 20010904//EN"
 "http://www.w3.org/TR/2001/REC-SVG-20010904/DTD/svg10.dtd">
<svg version="1.0" xmlns="http://www.w3.org/2000/svg"
 width="759.000000pt" height="759.000000pt" viewBox="0 0 759.000000 759.000000"
 preserveAspectRatio="xMidYMid meet">
<metadata>
Created by potrace 1.14, written by Peter Selinger 2001-2017
</metadata>
<g transform="translate(0.000000,759.000000) scale(0.100000,-0.100000)"
fill="#000000" stroke="none">
<path d="M3950 7052 c-8 -3 -29 -20 -47 -38 -22 -23 -37 -31 -52 -27 -16 4
-31 -4 -57 -31 -41 -42 -62 -43 -132 -7 -47 24 -87 27 -99 7 -5 -9 -35 -15
-85 -18 -43 -3 -83 -10 -90 -16 -7 -5 -38 -15 -68 -20 -30 -6 -56 -15 -58 -21
-2 -6 -15 -11 -29 -11 -31 0 -133 -85 -133 -110 0 -16 -32 -53 -90 -104 -8 -8
-40 -29 -71 -48 -31 -18 -69 -48 -84 -66 -15 -17 -33 -32 -41 -32 -19 0 -102
-77 -110 -102 -3 -12 1 -27 11 -38 9 -10 15 -29 14 -42 -4 -39 53 -201 81
-228 3 -3 18 -25 34 -49 16 -24 40 -54 55 -67 75 -66 99 -87 129 -113 18 -17
41 -32 51 -36 37 -11 45 -32 28 -67 -9 -18 -32 -71 -51 -117 -20 -46 -48 -102
-62 -123 -15 -21 -24 -42 -20 -46 10 -9 29 -10 36 -1 3 3 22 9 43 13 33 6 37
5 37 -14 0 -20 1 -20 16 -6 8 9 24 21 35 26 10 6 19 20 19 31 0 16 4 19 20 14
15 -5 18 -3 14 9 -3 9 -10 14 -14 11 -4 -3 -10 4 -13 14 -3 12 1 22 10 25 21
8 25 7 18 -3 -3 -5 4 -12 15 -16 11 -3 20 -11 20 -16 0 -6 5 -7 10 -4 6 3 10
13 10 21 0 8 -4 12 -10 9 -6 -4 -7 1 -3 11 4 11 8 13 11 6 5 -17 22 -15 22 3
0 8 -4 15 -10 15 -5 0 -10 7 -10 15 0 9 -7 15 -16 13 -9 -2 -21 5 -27 14 -9
13 -7 21 7 37 10 11 21 20 25 19 17 -2 21 4 12 21 -8 15 -6 20 15 30 20 9 26
8 31 -5 5 -13 7 -13 14 -2 7 11 9 11 9 -1 0 -11 3 -11 15 -1 12 10 15 10 15 0
0 -9 3 -10 13 -1 8 6 16 8 19 6 3 -3 3 6 0 20 -3 20 -1 24 12 19 10 -4 19 2
27 20 7 15 17 25 23 23 6 -3 20 3 31 13 36 30 105 52 147 45 21 -4 40 -11 44
-16 3 -5 10 -6 16 -3 6 4 14 0 19 -7 6 -9 9 -10 9 -2 0 8 9 9 32 2 17 -5 48
-9 67 -9 133 -3 171 -6 171 -11 0 -7 45 -18 90 -23 23 -2 62 -16 102 -37 10
-5 25 -9 33 -9 8 0 15 -9 15 -20 0 -11 7 -20 15 -20 8 0 15 -4 15 -9 0 -5 10
-11 23 -13 12 -2 22 -10 22 -18 0 -8 15 -19 33 -24 23 -6 31 -14 27 -24 -4
-10 0 -13 14 -9 16 4 23 -4 35 -34 19 -48 20 -56 4 -62 -7 -2 -5 -3 6 -1 33 5
54 -27 62 -94 5 -44 3 -62 -5 -62 -7 0 -9 9 -5 25 4 15 2 25 -4 25 -6 0 -14
-17 -17 -37 -3 -21 -8 -49 -11 -63 -3 -14 -5 -33 -5 -44 0 -17 -1 -17 -20 0
-19 17 -19 17 -15 -7 3 -13 5 -27 5 -30 1 -4 16 -21 34 -38 21 -22 26 -30 13
-25 -19 7 -18 5 3 -24 12 -18 27 -32 32 -32 5 0 9 -5 9 -12 0 -6 15 -25 33
-42 18 -17 37 -40 41 -51 5 -13 9 -16 14 -7 11 16 44 -23 46 -54 0 -13 5 -23
10 -21 14 5 69 -50 62 -61 -3 -6 4 -12 16 -14 17 -2 22 -9 20 -22 -3 -17 -2
-18 12 -7 14 12 16 10 16 -14 0 -24 -3 -26 -25 -21 -14 4 -25 2 -25 -4 0 -5 6
-9 12 -8 7 2 14 -8 16 -21 3 -18 0 -22 -11 -18 -10 4 -17 -2 -20 -15 -5 -17
-2 -19 20 -13 22 5 24 4 15 -7 -6 -8 -7 -19 -2 -28 7 -11 11 -11 24 -1 9 8 16
9 16 4 0 -17 -45 -47 -75 -50 -316 -24 -448 -23 -431 6 3 5 -7 17 -22 27 -15
9 -33 25 -39 35 -7 9 -23 19 -37 23 -28 7 -106 76 -106 94 0 18 -76 64 -111
68 -18 2 -37 11 -44 20 -7 10 -17 14 -23 10 -5 -3 -12 -2 -14 3 -1 5 -24 22
-50 38 -26 17 -44 34 -40 38 4 5 2 5 -4 2 -7 -4 -17 0 -24 8 -7 8 -21 15 -31
15 -11 0 -28 6 -39 12 -15 9 -22 10 -31 1 -14 -14 -62 4 -52 20 3 6 1 7 -5 3
-6 -4 -21 -2 -33 5 -19 10 -47 17 -86 21 -7 1 -13 5 -13 9 0 7 -48 17 -116 24
-22 2 -57 7 -79 10 -22 4 -46 7 -52 8 -7 0 -13 3 -13 7 0 3 -16 7 -37 8 -20 2
-40 5 -44 8 -5 3 -11 -7 -15 -21 -3 -14 -13 -25 -22 -25 -8 0 -13 3 -9 6 3 4
-6 22 -20 40 -18 24 -31 33 -44 29 -10 -4 -21 1 -27 10 -5 9 -13 17 -18 16 -5
0 -7 13 -6 30 2 16 -2 37 -9 45 -17 20 -13 81 7 111 10 16 12 29 6 35 -13 13
-44 -42 -73 -128 -15 -45 -36 -82 -61 -109 -45 -47 -56 -92 -38 -155 18 -65
23 -100 14 -100 -4 0 -55 19 -113 41 -111 44 -203 55 -248 30 -36 -19 -102
-83 -98 -95 2 -6 9 -94 15 -196 6 -102 18 -219 26 -260 20 -95 81 -199 135
-229 21 -12 57 -42 81 -68 24 -25 55 -57 70 -71 38 -35 63 -103 49 -131 -7
-12 -16 -21 -21 -21 -6 0 -10 -9 -10 -20 0 -11 -6 -23 -14 -26 -22 -8 -49 -79
-44 -116 3 -18 13 -79 23 -136 13 -77 15 -109 7 -126 -12 -28 0 -74 43 -171
25 -56 27 -67 21 -153 -3 -51 -11 -102 -17 -115 -18 -33 -17 -178 1 -213 20
-37 88 -105 126 -124 16 -8 37 -21 46 -28 12 -10 73 -19 190 -28 95 -8 176
-18 181 -23 16 -16 -4 -52 -36 -66 -18 -7 -52 -18 -77 -25 -25 -6 -59 -19 -77
-27 -18 -9 -41 -13 -52 -10 -11 3 -25 -1 -32 -9 -6 -8 -22 -14 -35 -14 -12 0
-25 -4 -28 -9 -3 -5 -26 -12 -51 -15 -24 -4 -47 -11 -50 -16 -3 -4 -27 -11
-55 -15 -27 -4 -54 -13 -61 -21 -6 -8 -22 -14 -35 -14 -12 0 -26 -4 -29 -10
-3 -5 -14 -10 -25 -10 -15 0 -115 -50 -99 -50 3 0 54 18 115 40 103 38 144 47
144 34 0 -3 -9 -17 -20 -31 -11 -14 -20 -35 -20 -47 0 -34 -11 -42 -105 -81
-49 -20 -117 -49 -150 -65 -33 -15 -81 -36 -107 -45 -26 -10 -53 -24 -59 -31
-6 -8 -17 -14 -25 -14 -7 0 -25 -5 -41 -12 -15 -6 -34 -10 -41 -9 -14 2 -145
-69 -138 -76 2 -3 34 9 69 26 36 17 71 31 77 31 7 0 38 9 69 19 43 15 368 107
483 137 12 4 18 -4 23 -26 8 -38 16 -38 39 0 9 17 21 28 27 25 5 -3 6 1 3 9
-4 11 16 38 62 83 60 61 65 56 6 -5 -24 -25 -47 -70 -43 -85 1 -5 3 -27 5 -49
3 -31 1 -38 -10 -34 -17 7 -19 -10 -1 -17 21 -9 -15 -28 -43 -22 -23 5 -23 3
10 -25 19 -16 37 -30 41 -30 4 0 5 -9 2 -20 -5 -17 0 -20 33 -20 22 0 71 12
109 25 39 14 71 25 71 25 1 0 4 -10 7 -22 5 -18 8 -19 21 -8 13 10 16 10 16
-4 0 -9 6 -16 13 -16 16 0 54 -39 47 -48 -3 -3 4 -6 16 -7 29 -2 84 -43 85
-63 0 -9 1 -93 1 -187 -1 -107 3 -164 8 -155 6 8 10 27 10 43 0 23 8 31 58 54
86 39 97 39 135 -2 30 -32 87 -55 87 -35 0 15 77 -8 150 -45 46 -23 76 -33 78
-26 2 6 7 9 11 7 17 -11 115 -16 120 -7 4 6 45 -9 103 -37 105 -52 109 -53
156 -60 17 -2 32 -8 32 -13 0 -5 3 -8 8 -7 4 1 35 -4 69 -11 48 -10 66 -11 77
-2 28 23 69 -37 56 -84 -12 -47 13 -71 57 -54 24 9 103 86 103 101 0 3 19 17
43 31 23 14 57 39 76 56 19 17 40 31 46 31 7 0 20 9 29 19 21 24 160 91 187
91 10 0 19 5 19 11 0 8 4 8 13 1 8 -7 18 -7 27 -2 8 6 27 10 42 10 15 0 29 4
32 9 3 4 22 7 43 6 22 -1 45 4 55 12 20 18 58 8 59 -15 0 -10 5 -5 11 11 5 15
14 25 19 21 5 -3 9 2 9 11 0 9 4 14 9 11 5 -4 4 -18 -4 -34 -7 -15 -16 -38
-20 -52 -14 -52 31 28 51 90 10 33 22 60 25 60 13 0 59 -239 79 -410 5 -41 19
-106 30 -145 12 -39 23 -105 24 -150 3 -65 14 -111 59 -250 31 -93 56 -164 57
-157 0 8 -16 80 -35 160 -79 324 -104 465 -86 477 16 9 13 35 -3 35 -17 0 -29
31 -20 53 3 9 -1 24 -10 32 -20 20 -20 83 -1 109 11 15 15 16 16 5 0 -8 4 -5
9 7 4 12 18 24 29 27 26 6 26 -1 1 -33 -11 -14 -20 -33 -20 -42 0 -9 -4 -20
-10 -23 -16 -10 -12 -42 13 -90 21 -43 36 -52 45 -27 2 7 -3 12 -11 12 -8 0
-17 8 -21 18 -3 9 -9 22 -12 29 -3 7 15 32 39 57 24 25 42 48 41 51 -2 3 0 2
6 -3 10 -8 -12 -96 -31 -118 -16 -19 -1 -38 18 -23 13 11 14 9 10 -19 -5 -33
10 -45 19 -14 3 9 9 24 13 32 4 8 6 40 5 71 -3 47 3 68 32 130 20 41 50 86 67
102 21 18 28 30 20 33 -7 3 -13 12 -13 20 0 17 -42 12 -130 -16 -30 -10 -70
-20 -87 -23 l-33 -6 0 82 c0 137 -20 264 -57 357 -8 20 -3 60 9 84 10 19 12
18 35 -10 l25 -29 -21 42 c-25 50 -26 64 -6 57 10 -4 15 0 15 14 0 13 8 22 20
24 18 3 17 6 -10 38 -16 19 -36 43 -44 52 -8 9 -22 31 -31 47 -8 17 -20 31
-25 31 -5 0 -11 9 -15 19 -3 11 -14 23 -25 26 -10 3 -21 17 -24 30 -4 14 -11
25 -16 25 -16 0 -12 265 5 343 17 82 55 196 66 203 5 3 9 12 9 20 0 8 10 26
23 39 12 13 27 30 33 37 6 7 21 20 34 28 12 8 28 28 36 43 8 15 22 36 30 45
52 60 64 76 69 92 3 9 16 23 30 30 13 7 29 28 36 47 6 18 15 33 20 33 5 0 32
46 60 102 28 56 57 108 65 115 8 8 14 18 14 22 0 5 11 20 25 35 13 14 29 45
36 68 14 53 53 131 80 161 11 12 26 29 33 37 21 23 106 213 106 235 0 8 5 15
10 15 6 0 15 12 21 28 38 96 53 130 65 157 7 17 17 47 23 69 10 38 57 90 93
102 10 3 18 12 18 20 0 8 5 14 10 14 6 0 10 6 10 13 0 6 16 30 35 51 19 22 35
45 35 52 0 7 6 19 13 26 17 17 25 47 43 178 14 96 14 110 -2 160 -42 141 -72
220 -83 220 -19 0 -81 172 -81 224 0 17 5 47 10 66 6 19 11 96 11 172 l1 136
-39 59 c-46 68 -68 108 -120 223 -21 47 -46 94 -55 104 -10 11 -18 24 -18 29
0 5 -8 17 -17 26 -10 9 -19 21 -20 26 -18 80 -60 123 -104 107 -16 -6 -27 -4
-41 10 -10 10 -18 23 -18 28 0 6 -4 10 -8 10 -5 0 -15 12 -23 28 -17 33 -64
82 -78 82 -6 0 -11 8 -11 18 0 11 -11 24 -25 30 -14 7 -31 17 -38 22 -48 41
-62 50 -88 55 -16 4 -29 11 -29 16 0 5 -12 9 -26 9 -27 0 -104 38 -104 51 0
13 -35 21 -109 26 -41 3 -77 0 -80 -5 -3 -5 -25 -19 -49 -31 -41 -21 -44 -21
-100 -5 -31 8 -77 20 -102 26 -71 16 -149 37 -232 64 -66 22 -80 23 -100 12
-15 -9 -64 -13 -149 -13 -80 0 -131 -4 -140 -12 -8 -6 -33 -16 -56 -22 -23 -6
-49 -18 -57 -26 -16 -16 -36 -20 -36 -7 0 11 -53 32 -97 39 -21 3 -41 11 -45
16 -4 6 -24 4 -56 -7 -70 -22 -89 -20 -120 13 -16 16 -33 26 -42 23z m480
-1427 c7 -9 8 -15 2 -15 -5 0 -12 7 -16 15 -3 8 -4 15 -2 15 2 0 9 -7 16 -15z
m40 -301 c0 -14 -4 -22 -10 -19 -5 3 -10 17 -10 31 0 14 4 22 10 19 6 -3 10
-17 10 -31z m-1520 -41 c0 -27 -3 -34 -11 -26 -7 7 -9 23 -5 37 9 37 16 32 16
-11z m800 -243 c0 -5 -2 -10 -4 -10 -3 0 -8 5 -11 10 -3 6 -1 10 4 10 6 0 11
-4 11 -10z m-1077 -55 c31 -16 57 -32 57 -37 0 -11 -223 -10 -254 2 -32 12
-33 34 -3 55 33 25 128 15 200 -20z m101 -124 c27 -11 46 -76 46 -161 0 -67
-3 -78 -25 -99 -23 -21 -32 -41 -20 -41 3 0 30 23 60 50 30 28 64 50 75 50 44
0 79 -50 106 -150 38 -146 60 -197 142 -330 12 -19 22 -43 22 -52 0 -54 -226
18 -320 101 -45 40 -91 55 -138 45 -71 -14 -118 3 -131 50 l-9 31 -1 -34 c-1
-26 -4 -32 -17 -27 -9 3 -19 6 -23 6 -4 0 -15 18 -25 41 -10 22 -20 38 -23 36
-2 -3 0 -15 7 -26 22 -42 0 -20 -27 27 -15 26 -31 50 -36 53 -5 4 -7 11 -5 15
3 5 0 43 -8 84 -14 77 -17 232 -5 285 10 47 39 55 196 54 77 0 148 -4 159 -8z
m444 -51 c12 -22 29 -40 37 -40 8 0 15 -7 15 -15 0 -8 20 -36 44 -63 31 -36
45 -62 50 -93 5 -34 9 -40 17 -29 9 12 10 10 6 -7 -3 -16 0 -23 9 -23 8 0 14
-10 14 -26 0 -22 2 -25 15 -14 12 10 15 10 15 -1 0 -18 52 -79 68 -79 7 0 12
-4 12 -9 0 -12 41 -22 54 -13 6 3 16 7 21 7 6 1 18 5 29 10 12 5 21 3 27 -6 8
-12 11 -11 20 4 32 54 39 -38 13 -174 -16 -88 -24 -107 -50 -134 -15 -15 -17
-14 -30 2 -13 16 -14 16 -12 -11 3 -26 -1 -30 -32 -39 -50 -13 -156 -2 -224
24 -38 15 -80 42 -117 76 -47 44 -64 69 -94 141 -39 93 -86 258 -84 301 1 30
6 17 57 -150 35 -110 72 -189 104 -219 13 -12 23 -25 23 -30 0 -17 67 -80 104
-99 35 -18 150 -45 158 -37 2 2 -3 11 -12 20 -9 9 -13 21 -9 27 4 7 3 9 -3 6
-19 -12 -73 14 -73 33 0 11 -4 22 -10 25 -5 3 -10 15 -10 26 0 10 -4 19 -8 19
-4 0 -25 16 -46 36 -21 19 -40 34 -42 31 -2 -2 -5 -22 -6 -45 -1 -47 -4 -49
-36 -26 -21 14 -23 23 -21 99 1 59 -4 97 -17 131 -10 27 -21 51 -24 54 -3 3
-22 25 -43 49 -35 43 -48 69 -27 56 6 -3 10 -1 10 5 0 14 43 -8 94 -49 22 -17
41 -30 42 -28 5 5 -56 75 -133 156 -35 35 -63 67 -63 71 0 17 46 63 74 76 52
22 69 17 94 -26z m537 -74 c19 -8 35 -19 35 -24 0 -5 15 -13 33 -17 24 -6 27
-9 13 -12 -20 -5 -96 25 -96 39 0 4 -6 8 -14 8 -8 0 -18 5 -21 10 -9 14 10 12
50 -4z m1881 -179 c44 -19 84 -48 84 -61 0 -7 -3 -7 -8 -1 -13 18 -50 35 -54
24 -2 -5 -41 -11 -88 -12 -72 -2 -91 -6 -125 -28 -52 -33 -89 -43 -104 -25 -8
10 -4 18 17 37 34 29 85 58 120 69 42 13 127 11 158 -3z m-1116 -18 c0 -5 -9
-9 -19 -9 -11 0 -23 -5 -27 -11 -3 -6 -17 -9 -30 -6 -14 2 -21 0 -17 -6 4 -6
0 -8 -10 -4 -11 4 -17 1 -17 -7 0 -8 -15 -19 -32 -27 -18 -7 -35 -16 -38 -19
-14 -19 -248 -140 -270 -140 -11 0 -36 -10 -57 -22 -21 -11 -56 -28 -78 -37
-22 -9 -64 -30 -92 -46 -48 -27 -53 -34 -54 -65 0 -19 -2 -48 -4 -63 -5 -40
18 -44 63 -11 35 27 162 107 227 143 36 20 259 108 298 117 15 3 27 10 27 14
0 4 21 13 48 19 26 7 61 18 79 26 47 23 177 45 184 33 4 -6 11 -8 17 -4 15 9
26 -12 15 -27 -5 -7 -10 -23 -11 -37 -1 -14 -6 -26 -12 -28 -5 -2 -10 -11 -10
-20 0 -15 -2 -15 -10 -2 -8 12 -10 11 -10 -7 0 -14 -6 -23 -15 -23 -8 0 -15
-7 -15 -15 0 -9 6 -12 15 -9 11 5 13 2 9 -10 -3 -9 -12 -16 -20 -16 -8 0 -17
0 -21 0 -5 0 -8 5 -8 12 0 15 -21 22 -30 9 -3 -7 0 -8 10 -5 11 5 14 2 9 -10
-8 -22 -42 -30 -60 -15 -25 20 -55 21 -76 2 -10 -9 -26 -18 -34 -19 -25 -4
-49 -30 -79 -88 -28 -54 -93 -133 -105 -129 -4 1 -13 -10 -21 -25 -14 -28 -43
-58 -60 -64 -6 -2 -11 -13 -12 -25 0 -12 -3 -21 -5 -19 -2 2 -18 -11 -37 -29
-18 -19 -36 -31 -40 -27 -3 3 -10 0 -14 -7 -13 -20 -33 -3 -29 24 3 27 -30 75
-52 75 -22 0 -51 -22 -53 -40 -2 -8 -7 -21 -11 -29 -7 -11 -5 -13 10 -7 10 4
15 4 11 0 -10 -10 12 -34 27 -28 7 3 12 -6 13 -23 1 -24 0 -25 -7 -8 -6 13 -9
15 -9 5 -1 -9 -4 -11 -9 -5 -20 28 -42 37 -57 25 -8 -7 -21 -10 -30 -6 -19 7
-41 -30 -22 -37 9 -4 9 -6 -1 -6 -7 -1 -17 10 -21 23 -5 13 -16 26 -23 29 -17
6 -48 -15 -48 -33 0 -9 -6 -7 -20 5 -11 10 -20 23 -20 29 0 6 4 4 10 -4 5 -8
12 -11 16 -7 10 10 11 77 0 77 -5 0 -6 17 -2 38 12 63 13 93 3 99 -5 3 -15 19
-23 37 -7 17 -13 25 -14 18 0 -7 -4 -10 -10 -7 -5 3 -10 1 -10 -4 0 -18 -18
-12 -22 6 -3 15 -5 15 -18 1 -10 -9 -23 -12 -35 -8 -17 6 -15 8 11 18 72 27
96 77 127 256 13 77 28 141 33 142 5 2 42 8 82 14 45 8 72 16 72 25 0 8 9 11
25 7 25 -4 36 13 13 20 -6 2 -12 12 -14 21 -2 18 14 17 88 -9 39 -14 54 -9 37
13 -15 17 1 17 37 -2 19 -10 32 -11 40 -4 7 5 14 6 16 2 1 -5 17 -6 33 -2 22
5 25 7 10 9 -11 2 0 6 25 9 69 10 270 9 270 0z m817 -105 c4 -13 -24 -51 -32
-43 -10 10 6 60 18 56 6 -2 12 -8 14 -13z m431 0 c-4 -3 0 -20 7 -38 8 -18 11
-43 8 -54 -3 -13 -1 -22 6 -22 7 0 9 -5 6 -11 -10 -16 -17 -4 -26 43 -4 24
-10 53 -14 66 -5 15 -3 22 6 22 7 0 10 -3 7 -6z m-155 -108 c9 -7 17 -19 17
-25 0 -7 5 -9 10 -6 12 8 13 3 1 -28 -6 -14 -12 -56 -15 -93 -7 -81 -15 -142
-22 -166 -10 -33 -16 -64 -21 -100 -5 -39 -43 -77 -90 -92 -13 -4 -23 -14 -23
-23 0 -10 6 -13 16 -9 9 3 22 6 29 6 30 0 83 60 102 117 46 133 55 166 60 223
3 33 10 57 14 54 5 -3 12 2 15 10 3 9 10 13 15 10 13 -7 11 -58 -3 -91 -6 -15
-12 -56 -12 -89 -1 -52 -8 -75 -45 -149 -25 -48 -50 -89 -58 -92 -7 -3 -13
-11 -13 -17 0 -12 -78 -91 -90 -91 -3 0 -11 -4 -18 -9 -7 -4 -16 -6 -19 -3 -3
3 -20 -10 -39 -29 -19 -19 -38 -34 -42 -34 -5 0 -17 -8 -28 -18 -29 -27 -123
-53 -197 -53 -57 -1 -72 3 -108 28 -55 37 -62 58 -37 115 21 49 36 58 101 58
l37 0 -15 36 c-8 20 -15 40 -15 45 0 5 33 9 74 9 41 0 77 4 80 9 3 5 -10 8
-29 6 -30 -3 -35 -1 -35 18 0 42 25 55 118 62 57 4 70 17 48 49 -16 25 -23 96
-8 96 12 0 111 -39 132 -52 12 -8 20 -24 20 -39 0 -19 5 -26 18 -25 21 1 55
97 49 139 -2 15 1 27 6 27 5 0 -9 18 -32 40 -38 37 -44 40 -82 34 -43 -7 -89
9 -89 32 0 7 24 29 53 48 30 20 62 45 72 56 21 23 71 26 98 6z m-424 -212 c-5
-14 -9 -42 -9 -63 0 -49 -8 -56 -37 -29 -12 12 -33 22 -45 23 -16 1 -22 8 -22
28 -1 16 4 27 11 27 7 0 13 5 13 10 0 6 -5 10 -11 10 -5 0 -7 5 -4 11 4 6 13
8 21 5 8 -3 14 -1 14 4 0 12 52 18 67 7 8 -6 9 -16 2 -33z m-1934 -140 c27
-26 77 -59 114 -76 128 -57 239 -113 236 -118 -2 -3 1 -12 7 -20 8 -12 9 -12
4 3 -3 9 -1 17 4 17 20 0 59 -20 63 -32 2 -7 2 -3 0 10 -2 12 1 22 7 22 5 0
10 -9 10 -20 0 -10 6 -25 13 -32 14 -13 12 -43 -5 -65 -7 -8 -4 -23 6 -44 19
-38 12 -53 -15 -38 -11 6 -27 8 -34 5 -8 -3 -21 2 -30 10 -13 14 -15 13 -15
-5 0 -11 -5 -23 -11 -27 -8 -4 -9 0 -4 15 4 12 2 21 -4 21 -6 0 -11 -6 -11
-12 -1 -8 -6 -6 -14 5 -7 9 -20 17 -29 17 -9 0 -19 10 -22 21 -5 14 -10 18
-14 10 -5 -7 -20 13 -38 48 -17 33 -33 57 -36 55 -3 -3 -15 -1 -26 6 -17 9
-21 8 -21 -5 0 -8 -5 -15 -11 -15 -5 0 -7 5 -4 10 3 6 1 10 -4 10 -6 0 -12
-10 -12 -22 -1 -17 -2 -19 -6 -5 -2 9 -10 17 -18 17 -7 0 -16 7 -19 16 -4 9
-13 14 -21 10 -8 -3 -15 0 -16 7 0 9 -2 9 -6 -1 -2 -6 -9 -10 -14 -6 -5 3 -9
-2 -9 -10 0 -9 -5 -16 -11 -16 -5 0 -7 5 -4 10 8 13 -4 50 -16 50 -5 0 -10
-12 -10 -27 l-1 -28 -8 30 c-6 24 -8 26 -9 8 -2 -35 -16 -27 -28 15 -10 34
-11 35 -12 9 0 -16 -5 -25 -11 -22 -5 3 -7 20 -3 38 4 25 3 30 -7 20 -15 -14
-5 -87 11 -77 5 3 25 -6 44 -21 26 -19 35 -34 35 -56 0 -23 -4 -29 -21 -29
-14 0 -19 5 -16 14 3 7 0 13 -6 13 -43 -1 -49 3 -43 29 5 17 3 23 -4 19 -5 -3
-10 -13 -10 -21 0 -16 -12 -18 -26 -5 -5 6 -58 35 -119 66 -102 52 -113 56
-172 54 -34 -1 -68 2 -75 8 -7 5 -21 13 -30 16 -10 4 -18 11 -18 16 0 16 29
21 58 9 33 -15 164 -17 174 -3 5 6 8 5 8 -3 0 -7 5 -10 10 -7 6 4 17 2 24 -4
16 -13 49 -4 40 11 -4 6 -1 9 7 6 8 -3 14 -11 14 -19 0 -8 6 -23 14 -35 14
-21 14 -21 42 9 37 39 39 66 4 59 -14 -2 -25 -1 -24 4 4 21 -2 26 -16 14 -12
-10 -15 -9 -15 4 0 10 -11 19 -28 22 -18 4 -28 12 -28 24 0 16 9 18 76 17 56
0 87 5 120 21 25 11 45 21 46 21 0 1 22 -20 49 -45z m332 40 c-3 -3 -12 -4
-19 -1 -8 3 -5 6 6 6 11 1 17 -2 13 -5z m1519 -79 c-4 -14 -13 -25 -21 -25
-14 0 -14 4 0 31 19 35 30 32 21 -6z m-1222 -231 c3 -8 2 -12 -4 -9 -6 3 -10
10 -10 16 0 14 7 11 14 -7z m-104 -8 c0 -2 -6 -9 -14 -15 -11 -9 -16 -9 -22 0
-4 7 -3 9 4 5 6 -3 13 -2 17 4 6 10 15 14 15 6z m-530 -16 c0 -5 -5 -10 -11
-10 -5 0 -7 5 -4 10 3 6 8 10 11 10 2 0 4 -4 4 -10z m700 0 c-18 -12 -43 -13
-36 -2 2 4 15 8 28 9 18 2 19 0 8 -7z m-60 -45 c-26 -32 20 -48 52 -18 10 9
18 11 18 5 0 -6 3 -18 7 -28 4 -12 3 -15 -5 -10 -7 4 -12 1 -12 -8 0 -9 -7
-16 -15 -16 -8 0 -15 -7 -15 -15 0 -8 -5 -15 -11 -15 -5 0 -7 5 -4 10 3 6 2
10 -4 10 -6 0 -8 7 -5 15 3 8 -1 22 -10 30 -24 24 -19 74 6 59 5 -3 4 -12 -2
-19z m0 -66 c0 -5 -4 -9 -10 -9 -5 0 -7 -6 -4 -13 6 -18 -22 -42 -31 -27 -3 5
-1 10 4 10 6 0 11 13 11 30 0 22 4 28 15 24 8 -4 15 -10 15 -15z m-210 -43 c0
-9 -7 -16 -15 -16 -9 0 -12 6 -8 17 5 12 2 15 -10 10 -19 -7 -22 4 -6 20 14
14 39 -6 39 -31z m80 19 c0 -7 -30 -13 -34 -7 -3 4 4 9 15 9 10 1 19 0 19 -2z
m-697 -37 c-2 -5 1 -16 9 -25 11 -15 11 -16 -6 -10 -11 4 -22 3 -26 -3 -4 -7
-15 -3 -30 10 -26 23 -37 25 -42 9 -3 -8 -14 -6 -36 5 -18 9 -32 14 -32 10 0
-4 -7 0 -17 7 -14 12 -4 15 78 19 88 5 116 -1 102 -22z m124 17 c9 -25 -6 -31
-23 -9 -15 18 -15 18 -5 -3 6 -12 11 -24 11 -27 0 -8 -34 6 -42 18 -5 7 -8 3
-8 -8 0 -12 -5 -16 -16 -12 -9 3 -20 6 -25 6 -14 0 -11 17 7 34 21 21 93 21
101 1z m-377 -20 c0 -8 -4 -15 -10 -15 -5 0 -10 7 -10 15 0 8 5 15 10 15 6 0
10 -7 10 -15z m430 1 c0 -3 -4 -8 -10 -11 -5 -3 -10 -1 -10 4 0 6 5 11 10 11
6 0 10 -2 10 -4z m627 -12 c-3 -3 -12 -4 -19 -1 -8 3 -5 6 6 6 11 1 17 -2 13
-5z m-564 -15 c38 4 46 -23 15 -52 -13 -12 -33 -21 -46 -19 -23 4 -31 -13 -9
-21 6 -2 9 -7 5 -11 -8 -10 -49 25 -42 36 3 4 -4 8 -14 8 -26 0 -34 24 -16 47
11 13 17 14 20 6 4 -10 9 -9 21 2 8 8 20 12 26 8 7 -4 24 -6 40 -4z m27 -180
c-17 -5 -19 -7 -7 -8 10 -1 16 -5 13 -9 -7 -11 -66 -3 -66 9 0 5 5 9 10 9 6 0
10 7 10 14 0 12 6 13 33 4 32 -12 32 -12 7 -19z m-464 -97 c-2 -4 -1 -14 4
-22 7 -11 11 -10 25 3 9 10 23 18 31 18 34 3 52 2 94 -5 25 -4 57 -8 73 -10
15 -1 30 -6 34 -9 10 -11 82 -8 104 3 14 8 19 7 19 -2 0 -8 5 -6 11 5 13 22
29 13 29 -17 0 -12 9 -32 20 -44 17 -18 19 -25 8 -42 -11 -17 -11 -22 0 -29
14 -9 13 -32 -3 -43 -5 -4 -10 -18 -10 -30 0 -13 -5 -22 -12 -20 -7 1 -13 -3
-13 -9 0 -18 -23 -4 -26 15 -3 24 -14 34 -14 13 0 -10 -7 -18 -15 -18 -8 -1
-30 -3 -47 -5 -61 -7 -81 -6 -88 5 -7 13 -52 11 -61 -3 -4 -4 -16 -3 -29 4
-12 6 -24 9 -27 6 -3 -3 -12 2 -21 10 -9 9 -18 12 -24 6 -13 -13 -55 -3 -62
14 -3 8 1 14 9 14 8 0 15 9 15 20 0 26 -12 26 -28 0 -14 -23 -35 -18 -25 5 3
8 0 15 -6 15 -6 0 -11 -7 -11 -15 0 -20 -26 -19 -34 1 -3 8 -2 12 4 9 15 -9
12 12 -5 28 -7 8 -17 26 -21 41 -3 14 -10 23 -15 20 -5 -3 -9 1 -9 9 0 7 14
24 32 37 l31 23 19 -22 18 -23 10 26 c5 14 12 26 15 26 4 0 4 -4 1 -8z m2560
-1193 c0 -30 -4 -48 -10 -46 -14 4 -20 51 -11 84 9 38 20 18 21 -38z m37 -167
c14 -55 22 -101 18 -100 -19 2 -20 -5 -6 -32 20 -38 21 -77 1 -61 -11 9 -12 6
-8 -16 2 -16 2 -25 -2 -22 -3 3 -8 34 -11 69 -3 34 -8 67 -12 73 -4 6 -1 7 7
2 10 -6 12 -4 7 8 -19 50 -32 127 -28 176 2 28 11 3 34 -97z m-95 -107 c-3 -3
-9 2 -12 12 -6 14 -5 15 5 6 7 -7 10 -15 7 -18z m280 -160 c-6 -14 -13 -23
-15 -21 -5 5 15 46 22 46 3 0 -1 -11 -7 -25z"/>
<path d="M5227 3743 c-4 -4 7 -13 24 -20 36 -15 48 -11 29 12 -13 16 -42 20
-53 8z"/>
<path d="M3565 3750 c-3 -5 1 -10 10 -10 9 0 13 5 10 10 -3 6 -8 10 -10 10 -2
0 -7 -4 -10 -10z"/>
<path d="M3166 3727 c3 -10 9 -15 12 -12 3 3 0 11 -7 18 -10 9 -11 8 -5 -6z"/>
<path d="M3685 3710 c-4 -6 -11 -8 -16 -5 -5 4 -9 0 -9 -8 0 -10 7 -13 20 -10
24 6 34 19 21 27 -5 4 -12 2 -16 -4z"/>
<path d="M3620 3656 c0 -8 5 -18 10 -21 6 -3 10 1 10 9 0 8 -4 18 -10 21 -5 3
-10 -1 -10 -9z"/>
<path d="M3658 3630 c-19 -33 -11 -46 13 -20 8 9 13 24 10 33 -5 13 -9 10 -23
-13z"/>
<path d="M2792 3092 c2 -9 13 -18 26 -18 29 -2 28 8 -4 23 -22 10 -25 9 -22
-5z"/>
<path d="M2970 5431 c0 -6 4 -13 10 -16 6 -3 7 1 4 9 -7 18 -14 21 -14 7z"/>
<path d="M2960 5400 c0 -5 5 -10 11 -10 5 0 7 5 4 10 -3 6 -8 10 -11 10 -2 0
-4 -4 -4 -10z"/>
<path d="M4340 4885 c-11 -13 -10 -14 4 -9 9 3 16 10 16 15 0 13 -6 11 -20 -6z"/>
<path d="M4406 4882 c-18 -17 16 -52 50 -52 14 0 23 -4 19 -9 -10 -18 13 -21
30 -5 15 15 15 18 -1 35 -11 12 -25 17 -36 13 -10 -3 -18 -1 -18 4 0 11 -36
23 -44 14z"/>
<path d="M4675 4810 c-3 -5 1 -10 10 -10 9 0 13 5 10 10 -3 6 -8 10 -10 10 -2
0 -7 -4 -10 -10z"/>
<path d="M4650 4734 c0 -18 28 -25 34 -8 3 9 6 17 6 18 0 1 -9 2 -20 2 -11 0
-20 -6 -20 -12z"/>
<path d="M2405 2355 c-25 -12 -26 -14 -5 -9 28 7 60 23 45 23 -5 0 -23 -6 -40
-14z"/>
<path d="M2318 2323 c7 -3 16 -2 19 1 4 3 -2 6 -13 5 -11 0 -14 -3 -6 -6z"/>
<path d="M2238 2303 c7 -3 16 -2 19 1 4 3 -2 6 -13 5 -11 0 -14 -3 -6 -6z"/>
<path d="M2188 2293 c6 -2 18 -2 25 0 6 3 1 5 -13 5 -14 0 -19 -2 -12 -5z"/>
<path d="M2115 2280 c-13 -5 -14 -9 -5 -9 8 0 24 4 35 9 13 5 14 9 5 9 -8 0
-24 -4 -35 -9z"/>
<path d="M5570 2283 c0 -5 10 -19 21 -33 l20 -25 -16 33 c-15 30 -25 41 -25
25z"/>
<path d="M1998 2251 c-37 -10 -71 -21 -75 -25 -5 -5 1 -6 12 -3 11 3 49 13 85
22 64 16 87 26 59 24 -8 0 -44 -9 -81 -18z"/>
<path d="M1860 2219 c0 -5 9 -9 20 -9 11 0 20 2 20 4 0 2 -9 6 -20 9 -11 3
-20 1 -20 -4z"/>
<path d="M5620 2201 c12 -24 30 -36 30 -22 0 6 -4 11 -10 11 -5 0 -10 7 -10
15 0 8 -5 15 -10 15 -7 0 -7 -6 0 -19z"/>
<path d="M1795 2200 c-3 -5 -1 -10 4 -10 6 0 11 5 11 10 0 6 -2 10 -4 10 -3 0
-8 -4 -11 -10z"/>
<path d="M1758 2183 c7 -3 16 -2 19 1 4 3 -2 6 -13 5 -11 0 -14 -3 -6 -6z"/>
<path d="M1608 2153 c7 -3 16 -2 19 1 4 3 -2 6 -13 5 -11 0 -14 -3 -6 -6z"/>
<path d="M1673 2150 c-52 -11 -184 -71 -202 -93 -19 -23 -12 -22 60 15 35 17
100 44 144 59 79 27 79 34 -2 19z"/>
<path d="M5660 2151 c0 -5 5 -13 10 -16 6 -3 10 -2 10 4 0 5 -4 13 -10 16 -5
3 -10 2 -10 -4z"/>
<path d="M1470 2125 c-25 -13 -63 -29 -85 -36 -43 -13 -120 -58 -112 -65 2 -2
57 21 121 51 65 30 126 55 136 55 10 0 22 5 25 10 11 18 -39 9 -85 -15z"/>
<path d="M1964 2140 c-20 -8 -42 -30 -30 -30 3 0 20 9 38 20 34 20 30 25 -8
10z"/>
<path d="M2040 2140 c-11 -7 1 -10 40 -9 40 0 49 3 35 9 -27 12 -57 12 -75 0z"/>
<path d="M2826 2094 c-8 -20 -8 -24 2 -24 4 0 8 9 9 20 2 24 -3 26 -11 4z"/>
<path d="M5570 2100 c0 -5 5 -10 11 -10 5 0 7 5 4 10 -3 6 -8 10 -11 10 -2 0
-4 -4 -4 -10z"/>
<path d="M1825 2080 c-27 -30 -11 -35 21 -6 21 18 24 25 13 26 -9 0 -24 -9
-34 -20z"/>
<path d="M1995 2073 c28 -8 53 -20 57 -27 5 -7 8 -5 8 6 0 18 -48 38 -89 37
-19 0 -12 -5 24 -16z"/>
<path d="M2855 2060 c4 -6 11 -8 16 -5 14 9 11 15 -7 15 -8 0 -12 -5 -9 -10z"/>
<path d="M5724 2051 c21 -23 26 -26 26 -11 0 5 -10 15 -22 21 -23 12 -23 12
-4 -10z"/>
<path d="M1909 2045 c18 -8 38 -15 45 -14 15 1 -46 28 -64 28 -8 0 0 -6 19
-14z"/>
<path d="M1686 2018 c-6 -15 -16 -28 -22 -28 -7 0 -19 -3 -28 -6 -11 -4 -16
-1 -16 10 0 9 -8 16 -20 16 -11 0 -20 -6 -20 -14 0 -8 -6 -17 -12 -19 -7 -3 2
-6 20 -6 60 -2 33 -19 -40 -26 -118 -11 -256 -32 -358 -56 -75 -17 -90 -24
-72 -30 31 -12 19 -33 -31 -55 -73 -33 -116 -81 -88 -98 12 -8 185 69 238 105
23 16 51 29 62 29 11 0 57 -13 102 -30 77 -28 81 -28 63 -8 -17 19 -17 21 -1
15 45 -18 53 -19 37 -8 -18 13 -24 12 110 14 87 2 108 -1 121 -15 13 -14 22
-15 60 -6 72 16 77 20 44 29 -16 5 -39 7 -50 4 -11 -3 -14 -2 -7 1 8 4 -15 20
-57 39 -39 18 -74 35 -78 39 -15 14 113 -3 212 -30 18 -5 17 -3 -3 13 l-23 19
26 12 c14 7 36 12 48 12 23 0 55 16 47 23 -14 13 -171 44 -205 40 -32 -3 -37
-2 -22 7 24 15 21 36 -5 36 -14 0 -25 -9 -32 -28z m69 -188 c3 -5 1 -10 -4
-10 -6 0 -11 5 -11 10 0 6 2 10 4 10 3 0 8 -4 11 -10z"/>
<path d="M1465 2031 c-16 -3 -44 -14 -62 -23 -49 -27 -130 -57 -166 -62 -17
-2 -39 -7 -48 -11 -10 -3 -20 -1 -25 6 -4 8 -3 10 4 5 11 -6 72 19 72 30 0 2
-9 0 -20 -6 -14 -7 -26 -8 -38 -1 -16 10 -16 10 0 11 9 0 19 4 22 9 3 4 -16 3
-42 -3 -32 -8 -40 -12 -24 -14 20 -3 17 -7 -25 -41 -27 -21 -59 -50 -72 -64
-23 -26 -23 -26 -1 -20 12 3 24 12 27 19 7 18 73 38 228 70 122 25 132 29 169
65 22 22 38 38 35 38 -2 -1 -17 -4 -34 -8z"/>
<path d="M1840 2033 c0 -8 73 -53 86 -53 13 0 -20 31 -47 46 -32 16 -39 17
-39 7z"/>
<path d="M1070 1949 c0 -5 5 -7 10 -4 6 3 10 8 10 11 0 2 -4 4 -10 4 -5 0 -10
-5 -10 -11z"/>
<path d="M967 1893 c-5 -26 -4 -26 9 -8 16 22 18 35 5 35 -5 0 -11 -12 -14
-27z"/>
<path d="M840 1865 l-25 -14 26 -1 c15 0 38 -9 52 -20 24 -19 57 -95 57 -132
0 -11 7 -18 20 -18 11 0 20 3 20 8 0 12 -44 97 -52 100 -5 2 -8 13 -8 23 0 13
-12 25 -35 35 -20 8 -33 19 -30 24 8 13 5 12 -25 -5z"/>
<path d="M758 1820 c-27 -17 -48 -32 -48 -35 0 -8 78 35 91 51 16 20 10 18
-43 -16z"/>
<path d="M1248 1787 c-16 -6 -28 -14 -28 -18 0 -3 36 -12 79 -19 66 -10 82
-10 94 1 13 12 7 16 -37 31 -59 19 -71 20 -108 5z"/>
<path d="M2921 1754 c-11 -15 -21 -30 -21 -34 0 -10 -99 -10 -105 0 -3 5 -1
19 6 31 8 15 8 19 0 15 -6 -4 -18 -20 -25 -35 -19 -36 -58 -36 -66 0 l-6 24
-7 -27 c-7 -25 -12 -27 -82 -33 -41 -4 -78 -11 -81 -16 -5 -9 15 -13 49 -11
10 1 17 -5 17 -17 0 -25 -28 -92 -48 -114 -16 -18 -15 -18 11 -12 22 6 37 1
71 -23 24 -17 76 -42 116 -56 52 -17 84 -35 112 -63 l38 -39 -15 -49 c-8 -28
-15 -51 -15 -52 0 -2 8 -3 18 -3 10 0 26 14 35 30 10 17 25 30 32 30 17 0 30
-41 22 -72 -8 -28 41 -74 95 -90 l40 -12 -24 -18 c-26 -20 -22 -21 42 -8 33 6
52 4 72 -6 16 -8 28 -16 28 -17 0 -3 -112 -9 -200 -11 -32 -1 -45 -5 -48 -17
-3 -16 42 -29 158 -44 67 -9 90 -28 90 -75 0 -31 5 -43 29 -59 43 -31 47 -26
12 14 -38 43 -39 53 -6 31 30 -20 33 -7 5 19 -22 20 -27 40 -7 29 6 -4 3 3 -7
15 -20 22 -20 22 33 -2 28 -14 54 -27 57 -30 3 -3 13 -3 24 0 18 5 18 5 -1 24
-12 12 -17 28 -14 49 2 17 -3 47 -11 66 -8 20 -13 38 -11 40 4 4 29 -50 41
-89 6 -19 103 -67 137 -67 75 0 -15 178 -111 217 -50 21 -70 42 -70 74 0 24
-7 32 -37 44 -20 9 -58 29 -84 45 -27 17 -49 24 -51 18 -4 -11 -149 59 -185
91 -27 23 -30 78 -9 158 13 50 13 51 -9 55 -12 3 -61 3 -109 0 -51 -2 -86 0
-86 6 0 10 70 22 135 22 38 0 43 2 38 20 -3 11 0 27 7 35 7 9 10 18 8 21 -3 3
-15 -7 -27 -22z m-201 -84 c-20 -13 -80 -13 -80 0 0 6 21 10 48 10 34 0 43 -3
32 -10z m608 -525 c-3 -3 -9 2 -12 12 -6 14 -5 15 5 6 7 -7 10 -15 7 -18z"/>
<path d="M1555 1760 c-3 -5 1 -10 9 -10 9 0 16 5 16 10 0 6 -4 10 -9 10 -6 0
-13 -4 -16 -10z"/>
<path d="M5920 1728 c12 -24 30 -59 41 -79 20 -38 26 -85 10 -75 -5 4 -4 -7 2
-23 15 -40 27 -29 27 22 0 27 -9 57 -25 82 -13 22 -33 57 -45 78 -28 51 -35
47 -10 -5z"/>
<path d="M1415 1750 c-3 -5 -1 -10 4 -10 6 0 11 5 11 10 0 6 -2 10 -4 10 -3 0
-8 -4 -11 -10z"/>
<path d="M5790 1748 c0 -7 5 -20 10 -28 8 -12 10 -11 10 7 0 12 -4 25 -10 28
-5 3 -10 0 -10 -7z"/>
<path d="M1450 1740 c13 -8 13 -10 -2 -10 -9 0 -19 -4 -22 -9 -3 -5 12 -4 34
1 46 12 46 13 5 22 -22 5 -26 4 -15 -4z"/>
<path d="M1105 1718 l-40 -21 40 -14 c91 -32 200 -31 263 2 47 24 47 24 15 25
-17 0 -33 -5 -35 -12 -5 -13 -110 -29 -118 -18 -3 4 -18 11 -35 16 -27 7 -24
9 30 14 l60 5 -53 13 c-70 16 -79 15 -127 -10z"/>
<path d="M636 1699 c-14 -17 -26 -37 -26 -45 0 -8 -35 -51 -78 -97 -68 -71
-102 -120 -102 -145 0 -4 12 11 26 33 15 22 55 69 90 105 34 36 76 91 93 123
16 31 28 57 26 57 -2 0 -15 -14 -29 -31z"/>
<path d="M1820 1721 c-21 -12 -209 -57 -315 -76 -225 -39 -231 -42 -317 -125
-76 -76 -98 -114 -81 -145 9 -15 11 -15 24 1 12 16 12 17 -1 9 -8 -4 -12 -5
-8 0 4 4 21 9 38 10 38 3 91 25 85 35 -3 4 3 14 13 21 16 13 16 13 2 -5 -14
-18 -13 -19 5 -12 11 4 44 17 72 28 29 10 52 22 52 26 -3 18 2 26 10 14 6 -11
16 -10 49 4 23 9 42 20 42 26 0 5 5 6 10 3 14 -9 52 4 45 16 -3 5 0 6 8 3 18
-7 219 83 259 116 31 26 38 67 8 51z"/>
<path d="M798 1675 c-21 -19 -46 -35 -55 -35 -22 -1 -97 -69 -145 -130 -63
-81 -52 -76 46 20 l96 95 65 0 c55 0 66 3 73 20 11 25 -5 65 -27 65 -9 0 -33
-16 -53 -35z"/>
<path d="M6086 1703 c-11 -11 -6 -49 8 -68 12 -17 14 -15 18 23 3 38 -10 61
-26 45z"/>
<path d="M6145 1680 c3 -5 11 -10 16 -10 6 0 7 5 4 10 -3 6 -11 10 -16 10 -6
0 -7 -4 -4 -10z"/>
<path d="M1020 1656 c0 -21 26 -66 44 -75 20 -11 30 -10 66 9 31 16 39 25 31
33 -8 8 -14 8 -23 -1 -17 -17 -38 -15 -38 3 0 9 -12 20 -26 25 -25 10 -54 13
-54 6z m70 -50 c0 -3 -4 -8 -10 -11 -5 -3 -10 -1 -10 4 0 6 5 11 10 11 6 0 10
-2 10 -4z"/>
<path d="M963 1634 c-7 -19 4 -29 39 -38 26 -6 27 -5 17 24 -12 33 -45 41 -56
14z"/>
<path d="M6036 1627 c-18 -13 -18 -16 0 -90 18 -77 34 -101 34 -50 0 15 9 46
21 70 l21 44 -22 19 c-27 24 -31 24 -54 7z"/>
<path d="M6161 1604 c-10 -23 -9 -29 14 -52 l26 -26 -3 49 c-3 55 -19 68 -37
29z"/>
<path d="M3161 1555 c20 -33 49 -48 49 -25 0 12 -50 59 -62 60 -4 0 2 -16 13
-35z"/>
<path d="M6125 1560 c-6 -10 -9 -182 -5 -250 2 -30 4 -27 10 19 5 29 22 82 40
116 18 35 29 68 26 74 -13 21 -65 51 -71 41z"/>
<path d="M951 1549 c1 -30 14 -48 28 -40 11 7 10 13 -8 32 -14 15 -21 18 -20
8z"/>
<path d="M3306 1533 c9 -38 14 -42 14 -10 0 14 -5 29 -10 32 -7 4 -8 -3 -4
-22z"/>
<path d="M6280 1535 c0 -8 -6 -25 -12 -36 -11 -18 -10 -23 11 -40 l25 -20 14
26 c9 19 10 30 3 39 -6 7 -8 16 -4 20 4 4 1 11 -7 16 -21 14 -30 12 -30 -5z"/>
<path d="M5730 1471 c-55 -56 -71 -79 -84 -125 -9 -31 -14 -61 -11 -65 2 -5
-2 -11 -10 -15 -8 -3 -15 -16 -15 -28 -1 -13 -7 -34 -14 -47 -14 -25 -8 -70
14 -96 8 -10 7 -14 -2 -17 -9 -3 -5 -13 11 -34 l23 -29 -7 38 c-4 22 -3 37 2
37 6 0 25 28 42 63 43 81 73 112 144 148 55 28 77 55 77 95 0 25 -16 15 -104
-67 -78 -74 -129 -139 -109 -139 5 0 0 -5 -9 -11 -10 -5 -18 -19 -18 -30 0
-19 -21 -49 -34 -49 -11 0 -6 68 5 72 6 2 12 23 13 46 0 29 3 37 9 26 7 -13
13 -10 29 18 11 18 43 57 71 87 52 54 51 54 -34 -8 -31 -22 -22 -4 23 47 41
45 31 39 -36 -20 -16 -15 -31 -26 -33 -24 -9 9 19 57 63 106 72 82 78 90 69
90 -4 0 -38 -31 -75 -69z"/>
<path d="M5601 1494 c0 -11 3 -14 6 -6 3 7 2 16 -1 19 -3 4 -6 -2 -5 -13z"/>
<path d="M6203 1448 c-20 -12 -33 -28 -33 -40 0 -24 17 -20 60 15 49 38 26 58
-27 25z"/>
<path d="M5571 1444 c0 -11 3 -14 6 -6 3 7 2 16 -1 19 -3 4 -6 -2 -5 -13z"/>
<path d="M6254 1418 l-19 -23 23 19 c21 18 27 26 19 26 -2 0 -12 -10 -23 -22z"/>
<path d="M6379 1418 c-12 -22 -11 -22 7 -8 10 8 20 15 22 16 2 1 -1 5 -7 8 -5
4 -15 -4 -22 -16z"/>
<path d="M6450 1380 c0 -5 7 -10 16 -10 8 0 12 5 9 10 -3 6 -10 10 -16 10 -5
0 -9 -4 -9 -10z"/>
<path d="M1067 1354 c-18 -24 -18 -24 10 -35 29 -11 107 -31 209 -54 34 -7 91
-21 127 -30 63 -16 67 -16 106 5 23 11 41 24 41 29 0 11 -40 27 -115 45 -82
19 -325 31 -325 15 0 -8 -4 -8 -15 1 -8 7 -13 15 -11 19 3 4 2 12 -2 18 -4 7
-14 2 -25 -13z"/>
<path d="M6316 1371 c-3 -5 -27 -20 -53 -34 -114 -59 -118 -62 -121 -95 -4
-41 16 -42 30 -2 6 18 23 37 42 47 42 21 146 85 146 89 0 8 -39 3 -44 -5z"/>
<path d="M6637 1349 c7 -7 15 -10 18 -7 3 3 -2 9 -12 12 -14 6 -15 5 -6 -5z"/>
<path d="M2382 1320 l-22 -30 23 11 c12 6 23 19 24 30 2 25 1 24 -25 -11z"/>
<path d="M347 1323 c-4 -3 -7 -11 -7 -17 0 -6 5 -5 12 2 6 6 9 14 7 17 -3 3
-9 2 -12 -2z"/>
<path d="M982 1280 c0 -19 2 -27 5 -17 2 9 2 25 0 35 -3 9 -5 1 -5 -18z"/>
<path d="M5580 1299 c0 -8 4 -20 9 -27 7 -11 9 -11 14 1 3 9 -1 21 -9 27 -11
10 -14 10 -14 -1z"/>
<path d="M6435 1281 c-35 -16 -97 -29 -205 -45 -14 -2 -6 -4 17 -5 59 -2 181
26 217 49 38 24 24 25 -29 1z"/>
<path d="M2204 1198 c-58 -89 -109 -175 -169 -283 -15 -27 -38 -69 -52 -92
-23 -39 -23 -44 -9 -64 11 -17 16 -19 19 -8 5 18 21 63 39 109 7 19 35 71 62
115 135 220 178 295 174 305 -2 6 -31 -31 -64 -82z"/>
<path d="M5548 1274 c-3 -5 0 -27 7 -49 12 -38 13 -38 13 -10 1 35 -12 73 -20
59z"/>
<path d="M6615 1253 c-63 -27 -124 -34 -164 -19 -16 6 -21 5 -17 -3 4 -6 2
-11 -5 -11 -7 0 10 -12 36 -26 30 -15 57 -23 70 -20 22 6 22 4 14 -41 -5 -25
-14 -52 -20 -59 -6 -8 -9 -20 -6 -28 7 -18 -17 -11 -52 16 -13 10 -29 18 -35
18 -6 0 4 -12 22 -26 18 -15 47 -52 65 -83 21 -38 33 -50 35 -38 2 9 7 17 10
17 18 -2 83 -71 97 -103 17 -40 26 -49 18 -17 -7 25 0 25 35 3 25 -16 26 -16
14 -1 -12 15 -9 19 23 32 27 12 36 20 31 32 -3 9 -18 61 -32 117 -14 55 -31
112 -38 126 -7 14 -16 44 -20 66 l-6 40 20 -24 21 -25 -7 30 c-6 26 -29 55
-43 53 -3 0 -33 -12 -66 -26z m19 -133 c2 -25 5 -47 5 -49 1 -2 7 2 15 8 12
10 17 8 25 -6 18 -35 -8 -163 -33 -163 -10 0 -106 86 -106 96 0 2 9 13 20 24
11 11 22 32 25 47 8 34 34 97 40 92 2 -2 6 -24 9 -49z m66 0 c0 -16 -5 -30
-10 -30 -6 0 -9 12 -6 28 5 33 5 32 11 32 3 0 5 -13 5 -30z m-25 10 c3 -5 1
-10 -4 -10 -6 0 -11 5 -11 10 0 6 2 10 4 10 3 0 8 -4 11 -10z"/>
<path d="M5807 1221 c-91 -64 -92 -65 -75 -90 14 -20 16 -20 29 -5 7 9 39 36
71 61 35 27 58 52 58 64 0 26 -5 24 -83 -30z"/>
<path d="M270 1198 c-37 -44 -80 -108 -80 -120 0 -22 21 -1 55 55 21 34 45 72
53 85 22 34 11 26 -28 -20z"/>
<path d="M2283 1193 c-70 -85 -173 -224 -173 -234 0 -15 12 -11 75 26 45 27
53 34 30 29 -29 -6 -29 -6 -9 9 11 9 34 18 50 22 21 4 23 3 10 -3 -15 -6 -16
-11 -7 -16 19 -12 53 25 41 44 -7 11 -10 11 -10 2 0 -7 -4 -10 -10 -7 -16 10
-12 25 8 26 11 0 13 2 4 6 -8 3 -22 -4 -33 -16 -23 -24 -39 -27 -39 -7 0 15
42 60 78 84 13 8 28 24 34 35 9 17 8 19 -6 14 -14 -6 -15 -3 -6 13 18 33 4 23
-37 -27z"/>
<path d="M940 1140 c0 -63 2 -71 15 -60 16 14 21 25 6 15 -6 -3 -10 19 -10 51
0 31 -2 58 -5 62 -3 3 -6 -27 -6 -68z"/>
<path d="M6160 1201 c0 -6 5 -13 10 -16 6 -3 10 -15 10 -26 0 -10 4 -19 9 -19
11 0 41 -79 41 -111 0 -13 -9 -32 -19 -41 -50 -42 -96 -48 -51 -6 16 15 19 23
11 26 -16 5 -29 -13 -38 -51 -3 -15 -11 -26 -17 -24 -19 7 -46 -13 -46 -34 0
-16 -4 -19 -20 -14 -14 4 -20 2 -20 -9 0 -8 -8 -14 -17 -14 -10 1 -44 -15 -75
-35 -31 -20 -66 -37 -78 -37 -34 0 -26 -46 15 -83 33 -29 47 -67 25 -67 -5 0
-10 6 -10 13 0 6 -13 18 -29 25 -15 7 -33 22 -39 35 -11 22 -11 22 -11 -4 -1
-14 -6 -30 -13 -37 -9 -9 -9 -12 -1 -12 7 0 15 5 18 10 10 16 23 12 30 -10 3
-11 13 -20 21 -20 11 0 14 -21 14 -109 0 -104 1 -109 20 -104 15 4 23 -2 33
-26 7 -17 16 -29 19 -26 9 10 24 -18 48 -92 14 -40 27 -73 30 -73 7 0 33 68
35 91 0 8 11 26 24 40 56 59 81 166 39 163 -13 -1 -14 2 -6 15 8 13 6 25 -6
49 -30 58 -24 65 47 60 73 -6 101 8 117 57 6 18 20 41 32 51 20 18 21 18 32 1
19 -30 87 -100 92 -94 3 2 -5 26 -18 52 l-23 47 27 48 c25 44 25 49 11 69 -8
12 -13 25 -10 28 3 2 10 -5 16 -16 6 -11 23 -32 36 -45 14 -14 25 -31 25 -38
0 -7 14 -29 30 -48 l30 -35 -39 100 c-21 55 -57 142 -79 193 -22 50 -37 92
-34 92 4 1 -5 8 -21 16 -15 8 -33 12 -39 8 -6 -4 -8 -3 -5 3 4 6 0 14 -9 17
-23 9 -26 8 -18 -6 4 -7 -7 3 -24 22 -17 19 -31 41 -32 48 0 14 -100 17 -100
3z"/>
<path d="M6826 1168 c7 -41 -1 -48 -22 -20 -10 13 -13 14 -14 3 0 -10 -10 -6
-29 13 -29 27 -29 27 15 -81 24 -59 44 -114 44 -121 0 -7 4 -11 9 -8 5 3 17
-11 26 -32 10 -20 20 -40 22 -45 2 -4 -1 -6 -8 -5 -7 2 -15 -5 -17 -16 -2 -10
0 -16 6 -12 6 3 15 -8 21 -24 5 -17 7 -29 3 -26 -4 2 -7 -9 -6 -25 1 -23 10
-36 40 -56 45 -30 192 -175 219 -216 10 -15 19 -26 21 -24 6 5 -20 67 -28 67
-4 0 -4 15 -2 33 3 19 -3 56 -16 92 -12 33 -22 69 -23 80 -1 11 -6 23 -12 27
-5 4 -6 10 -2 15 5 4 18 -3 29 -17 l20 -25 -18 32 c-20 32 -95 116 -117 130
-7 4 -23 23 -36 41 -20 28 -22 38 -12 58 18 40 14 53 -39 107 -27 29 -56 61
-65 72 -15 19 -15 18 -9 -17z m98 -404 c9 -3 16 -12 16 -20 0 -8 5 -14 11 -14
11 0 39 -24 39 -34 0 -9 -100 58 -100 67 0 9 13 9 34 1z m96 -94 c0 -5 -2 -10
-4 -10 -3 0 -8 5 -11 10 -3 6 -1 10 4 10 6 0 11 -4 11 -10z m17 -32 c-3 -8 -6
-5 -6 6 -1 11 2 17 5 13 3 -3 4 -12 1 -19z m33 -19 c0 -5 -4 -9 -10 -9 -5 0
-10 7 -10 16 0 8 5 12 10 9 6 -3 10 -10 10 -16z m20 -19 c0 -5 -5 -10 -11 -10
-5 0 -7 5 -4 10 3 6 8 10 11 10 2 0 4 -4 4 -10z m25 -30 c3 -5 1 -10 -4 -10
-6 0 -11 5 -11 10 0 6 2 10 4 10 3 0 8 -4 11 -10z"/>
<path d="M1835 1169 c-4 -6 -5 -12 -2 -15 2 -3 7 2 10 11 7 17 1 20 -8 4z"/>
<path d="M6880 1165 c0 -7 122 -95 132 -95 14 0 -23 34 -74 68 -46 31 -58 37
-58 27z"/>
<path d="M982 1132 c-11 -25 -11 -25 4 -10 9 9 15 21 13 27 -2 6 -10 -2 -17
-17z"/>
<path d="M5798 1132 c-39 -28 -47 -42 -25 -42 7 0 28 16 47 35 40 42 30 45
-22 7z"/>
<path d="M5694 1125 c-8 -20 16 -49 29 -36 11 11 0 51 -14 51 -5 0 -12 -7 -15
-15z"/>
<path d="M1215 1083 c23 -23 375 -46 375 -25 0 5 -62 12 -137 15 -76 4 -163 9
-193 13 -36 4 -52 3 -45 -3z"/>
<path d="M6958 1073 c6 -10 48 -54 94 -98 45 -44 67 -62 47 -40 -68 78 -63 79
21 6 l85 -75 -70 73 c-72 75 -196 169 -177 134z"/>
<path d="M5730 1065 c-20 -24 -6 -28 15 -5 10 11 13 20 8 20 -6 0 -16 -7 -23
-15z"/>
<path d="M6150 1055 c0 -14 4 -25 9 -25 4 0 6 11 3 25 -2 14 -6 25 -8 25 -2 0
-4 -11 -4 -25z"/>
<path d="M969 1044 l-24 -26 28 13 c15 7 27 18 27 26 0 18 -3 17 -31 -13z"/>
<path d="M1777 1037 c-9 -18 -31 -77 -48 -132 -17 -55 -37 -110 -45 -122 -7
-12 -18 -39 -23 -60 -5 -21 -19 -72 -31 -113 -27 -96 -59 -239 -60 -267 0 -37
26 -16 45 35 22 57 19 54 39 46 12 -5 15 -14 10 -45 -4 -21 -4 -39 -1 -39 3 0
23 28 44 62 l38 63 5 -210 c3 -116 9 -216 13 -222 5 -7 24 -13 42 -13 30 0 37
5 49 35 8 19 26 50 39 67 13 18 33 46 43 63 26 40 1 24 -50 -32 -22 -24 -41
-41 -43 -39 -3 2 11 28 29 58 53 82 53 87 3 33 -27 -30 -50 -66 -56 -90 -21
-81 -22 -83 -31 -40 -5 22 -13 123 -18 225 -8 174 -7 187 11 212 23 33 24 48
3 48 -8 0 -12 -5 -9 -10 3 -6 -1 -10 -9 -10 -9 0 -16 5 -16 10 0 6 -4 10 -8
10 -5 0 -9 -13 -9 -29 0 -32 -26 -79 -49 -88 -8 -3 -21 0 -29 7 -13 10 -13 14
1 27 8 9 14 25 13 37 -2 36 0 39 26 22 38 -25 42 -19 9 16 -16 17 -24 28 -17
24 17 -9 26 28 18 77 l-7 42 41 -40 c50 -48 54 -30 6 32 -19 25 -35 51 -35 57
0 6 7 2 15 -8 13 -17 15 -17 15 -4 0 9 -4 20 -10 23 -5 3 -10 16 -10 28 0 17
2 19 10 7 13 -20 24 -6 12 17 -10 18 -8 26 44 201 18 63 15 74 -9 29z"/>
<path d="M5732 1025 c-32 -33 -32 -36 -18 -62 l14 -28 7 28 c4 15 11 27 15 27
4 0 10 8 13 18 2 9 8 25 12 35 11 28 -8 20 -43 -18z"/>
<path d="M5819 1049 c-2 -4 -4 -21 -15 -96 -4 -25 -2 -43 4 -43 9 0 26 130 17
139 -3 2 -6 2 -6 0z"/>
<path d="M572 1021 c-18 -3 -33 -10 -33 -14 0 -5 28 -22 61 -38 62 -32 96 -70
210 -233 25 -35 46 -63 48 -61 2 2 -9 23 -25 47 -16 24 -40 61 -52 83 l-23 40
41 -45 c23 -25 55 -66 73 -92 17 -27 33 -46 35 -44 12 12 -134 234 -193 293
-31 32 -11 33 44 2 31 -18 63 -37 71 -43 32 -25 -10 33 -45 62 -54 45 -126 59
-212 43z"/>
<path d="M6985 996 c6 -30 129 -181 146 -181 6 0 17 -9 25 -19 9 -12 14 -15
14 -7 0 14 -73 106 -150 191 -40 43 -41 44 -35 16z"/>
<path d="M5894 973 c-3 -16 -7 -34 -10 -40 -2 -7 0 -13 4 -13 4 0 13 18 19 40
5 22 6 40 2 40 -5 0 -11 -12 -15 -27z"/>
<path d="M1043 983 c9 -2 23 -2 30 0 6 3 -1 5 -18 5 -16 0 -22 -2 -12 -5z"/>
<path d="M478 964 c-17 -16 -6 -32 33 -49 51 -23 159 -146 258 -292 23 -35 44
-63 47 -63 7 0 -55 120 -86 165 -49 72 -55 94 -15 50 l37 -40 -27 40 c-16 22
-42 55 -58 73 -35 37 -24 43 19 10 22 -16 19 -11 -10 20 -55 58 -175 110 -198
86z"/>
<path d="M360 900 c-51 -80 -164 -216 -220 -266 l-51 -46 21 53 c14 38 16 48
5 35 -20 -26 -19 -17 5 40 34 79 15 60 -34 -35 l-46 -89 0 -196 c0 -144 3
-196 12 -196 6 0 49 37 95 83 46 46 83 81 83 78 0 -3 -18 -39 -39 -79 l-39
-72 34 -63 c18 -34 34 -66 34 -71 0 -15 -31 16 -62 63 -17 25 -33 48 -35 50
-1 2 -21 -4 -43 -14 l-40 -18 0 -69 0 -68 100 0 c96 0 112 4 90 26 -6 6 -6 20
1 40 10 25 8 38 -10 78 -29 67 -26 81 4 19 14 -28 35 -59 47 -69 l21 -19 -17
32 c-23 45 -20 50 11 22 l26 -24 -23 40 c-17 29 -19 36 -7 26 27 -21 20 -3
-14 41 -30 37 -31 40 -13 53 11 8 21 15 24 15 3 0 17 -24 32 -53 28 -57 74
-117 90 -117 5 0 0 13 -11 29 -30 42 -26 47 15 16 35 -27 56 -30 32 -4 -7 8
-19 22 -27 32 -12 15 -12 17 3 11 28 -11 18 9 -34 65 -45 50 -48 55 -32 67 9
7 20 14 24 14 4 0 31 15 60 34 29 18 71 39 93 46 58 18 61 25 23 54 -23 17
-53 28 -91 32 -47 6 -55 9 -46 20 9 11 8 14 -5 14 -20 0 -20 4 -1 40 9 17 13
30 10 30 -3 0 -44 -29 -90 -65 -47 -36 -90 -65 -96 -65 -5 0 33 84 85 188 92
182 120 262 91 262 -7 0 -27 -23 -45 -50z"/>
<path d="M1048 933 c-53 -22 -47 -33 7 -15 25 8 45 18 45 23 0 12 -7 10 -52
-8z"/>
<path d="M6831 924 c0 -11 3 -14 6 -6 3 7 2 16 -1 19 -3 4 -6 -2 -5 -13z"/>
<path d="M2233 900 c-13 -5 -23 -7 -23 -5 0 3 -18 -6 -41 -20 -88 -56 -112
-67 -105 -50 3 9 6 19 6 21 0 2 7 4 16 4 17 0 15 21 -3 27 -11 4 -49 -94 -40
-104 3 -2 41 17 84 45 43 27 94 58 113 70 36 22 32 28 -7 12z"/>
<path d="M5793 874 c-3 -8 -1 -20 6 -27 8 -8 11 -4 11 16 0 30 -7 35 -17 11z"/>
<path d="M1545 808 c-4 -31 -15 -62 -27 -75 -20 -21 -20 -21 2 -28 14 -4 19
-12 16 -23 -3 -9 -13 -55 -22 -102 -8 -47 -31 -144 -50 -217 -56 -216 -82
-343 -70 -343 20 0 145 483 161 624 5 43 13 64 31 81 28 26 31 45 8 45 -12 0
-15 9 -12 42 2 33 -1 43 -13 46 -14 2 -18 -8 -24 -50z"/>
<path d="M3550 810 c0 -6 7 -10 15 -10 8 0 15 2 15 4 0 2 -7 6 -15 10 -8 3
-15 1 -15 -4z"/>
<path d="M6785 790 c38 -25 48 -25 33 0 -7 11 -24 20 -38 20 l-25 0 30 -20z"/>
<path d="M52 783 c-5 -10 -10 -49 -10 -88 -1 -66 0 -68 12 -40 36 82 37 102 3
96 -4 -1 -3 8 3 20 7 11 9 23 7 26 -3 2 -10 -4 -15 -14z"/>
<path d="M1130 785 c15 -18 24 -115 11 -115 -6 0 -12 4 -15 9 -3 4 -24 11 -46
15 -31 5 -43 12 -50 31 -8 21 -14 24 -42 18 -18 -3 -35 -7 -37 -9 -2 -2 12
-43 32 -91 36 -91 62 -193 58 -228 -1 -15 0 -17 7 -6 13 19 20 -5 26 -89 3
-36 6 -65 6 -65 1 0 3 -8 5 -19 3 -15 -2 -13 -27 10 -28 27 -78 112 -78 133 0
5 -5 22 -11 38 -6 15 -13 48 -14 73 -5 67 -15 110 -25 110 -6 0 -6 -9 -1 -23
5 -13 11 -60 14 -104 3 -44 10 -90 16 -101 13 -25 14 -35 2 -28 -7 5 -5 -16
14 -127 4 -22 1 -27 -13 -25 -10 2 -16 -3 -14 -10 2 -9 -7 -11 -30 -8 -42 7
-111 10 -163 7 l-40 -2 24 -19 c13 -11 35 -23 50 -27 29 -7 51 -26 51 -42 0
-14 60 -51 83 -51 9 0 17 -4 17 -10 0 -6 32 -10 75 -10 41 0 75 3 75 8 0 6
-49 146 -75 217 -5 14 5 8 32 -18 36 -34 42 -48 58 -123 l18 -84 54 0 c44 0
53 3 45 13 -6 7 -18 55 -26 107 -30 188 -29 196 15 142 12 -15 20 -20 17 -12
-7 19 -25 111 -32 168 -5 33 -3 42 9 42 21 0 19 17 -3 22 -37 10 -51 143 -27
241 6 22 4 26 -8 21 -10 -3 -18 2 -22 15 -3 12 -11 21 -17 21 -6 0 -6 -6 2
-15z m-100 -133 c0 -15 -2 -15 -10 -2 -13 20 -13 33 0 25 6 -3 10 -14 10 -23z
m68 -169 c15 -9 29 -18 31 -20 2 -1 13 -60 23 -130 10 -71 21 -145 25 -165 3
-20 3 -48 -1 -62 l-6 -26 -21 21 c-23 23 -43 79 -28 79 13 0 11 27 -5 58 -8
15 -17 49 -20 76 -4 27 -13 77 -21 110 -21 88 -21 87 23 59z m-173 -322 c3 -5
0 -13 -6 -17 -6 -3 -7 -9 -3 -13 5 -3 15 -16 22 -28 12 -22 11 -23 -22 -23
-38 0 -91 38 -78 55 8 12 51 33 69 34 6 1 14 -3 18 -8z"/>
<path d="M1284 773 c-33 -49 -54 -103 -41 -103 24 0 37 17 56 73 21 61 15 74
-15 30z"/>
<path d="M1410 758 c-75 -53 -82 -62 -45 -54 27 6 113 81 104 90 -2 2 -29 -14
-59 -36z"/>
<path d="M2103 744 c-21 -16 -33 -34 -33 -49 0 -26 -15 -41 -25 -25 -12 20
-22 10 -28 -27 -4 -21 -10 -51 -13 -68 -7 -30 -6 -29 47 20 30 28 74 67 98 89
41 36 42 39 26 55 -13 12 -19 13 -22 4 -3 -7 -11 -13 -19 -13 -8 0 -14 -5 -14
-11 0 -5 -5 -7 -11 -4 -7 5 -2 16 12 31 29 31 22 30 -18 -2z"/>
<path d="M2175 761 c-3 -5 -1 -12 5 -16 5 -3 10 1 10 9 0 18 -6 21 -15 7z"/>
<path d="M1187 740 c-3 -11 -4 -20 -3 -20 1 0 9 9 19 20 13 15 14 20 3 20 -7
0 -16 -9 -19 -20z"/>
<path d="M1928 720 c-24 -22 -23 -55 3 -91 22 -32 16 -38 -13 -12 -27 25 -22
10 13 -33 24 -30 31 -34 26 -16 -3 12 -1 22 3 22 5 0 11 18 15 39 5 29 1 49
-12 74 -17 32 -19 33 -35 17z"/>
<path d="M1350 651 c-41 -11 -7 -21 41 -12 24 5 36 9 27 10 -9 1 -22 3 -30 5
-7 2 -24 1 -38 -3z"/>
<path d="M5820 645 c-10 -12 -10 -15 4 -15 9 0 16 7 16 15 0 8 -2 15 -4 15 -2
0 -9 -7 -16 -15z"/>
<path d="M916 635 c4 -8 8 -15 10 -15 2 0 4 7 4 15 0 8 -4 15 -10 15 -5 0 -7
-7 -4 -15z"/>
<path d="M2541 577 c-78 -57 -83 -62 -60 -68 60 -17 83 -11 129 37 25 26 39
44 33 40 -7 -4 -13 -2 -13 5 0 9 -3 9 -14 0 -19 -16 -16 10 3 33 21 25 12 20
-78 -47z"/>
<path d="M7366 592 c-16 -26 -21 -40 -11 -32 17 15 49 69 43 75 -2 2 -16 -17
-32 -43z"/>
<path d="M1210 616 c-28 -11 -34 -18 -32 -37 1 -12 3 -23 5 -24 1 -1 29 2 62
5 33 4 47 8 30 9 -29 2 -29 2 -10 17 12 9 21 11 23 4 2 -5 8 -10 14 -10 6 0 8
7 4 15 -3 10 1 15 12 15 15 0 15 2 2 10 -20 13 -68 11 -110 -4z"/>
<path d="M2426 569 c-88 -62 -85 -59 -48 -59 21 0 43 10 67 31 20 18 33 34 30
37 -3 3 2 14 12 24 24 27 15 22 -61 -33z"/>
<path d="M2064 581 c-66 -48 -72 -60 -80 -146 l-6 -80 33 44 c19 24 51 62 71
85 21 22 38 51 38 64 0 12 5 22 10 22 6 0 10 9 10 20 0 18 -3 19 -21 9 -15 -8
-19 -8 -15 0 11 17 2 13 -40 -18z"/>
<path d="M2678 542 c-32 -24 -58 -48 -58 -53 0 -22 80 -8 124 22 49 32 74 59
38 40 -28 -15 -35 -14 -28 5 3 8 2 12 -3 9 -5 -3 -11 1 -13 8 -2 9 -22 -1 -60
-31z"/>
<path d="M2900 560 c-41 -34 -54 -37 -45 -11 3 11 0 21 -8 24 -22 8 -32 -5
-34 -50 -1 -33 2 -41 15 -41 9 1 31 -2 49 -6 28 -6 35 -3 65 29 52 58 57 72
14 46 -38 -24 -50 -13 -19 21 26 29 1 21 -37 -12z"/>
<path d="M2230 539 c-34 -29 -34 -29 -9 -29 29 0 62 30 51 47 -5 7 -19 1 -42
-18z"/>
<path d="M1884 499 c-8 -47 -7 -62 3 -71 8 -6 10 -14 5 -17 -5 -3 5 -27 23
-53 l32 -46 7 79 c6 73 5 82 -18 118 -14 22 -29 42 -34 45 -5 3 -13 -22 -18
-55z"/>
<path d="M3209 525 c-8 -9 -25 -17 -37 -20 -11 -2 -34 -19 -51 -37 l-29 -33
61 -12 c33 -7 62 -11 64 -9 2 1 5 16 7 33 1 17 6 35 10 42 4 6 2 11 -3 11 -6
0 -11 -4 -11 -10 0 -5 -5 -10 -11 -10 -7 0 -5 10 6 26 19 30 16 41 -6 19z"/>
<path d="M3440 482 c-23 -23 -30 -39 -30 -69 0 -22 -7 -48 -15 -59 -28 -37
-19 -44 56 -40 51 3 79 10 98 23 52 39 49 133 -4 153 -63 24 -73 23 -105 -8z
m45 -110 c-3 -3 -11 0 -18 7 -9 10 -8 11 6 5 10 -3 15 -9 12 -12z"/>
<path d="M7266 453 c-25 -25 -46 -50 -46 -54 0 -5 23 15 50 43 28 28 50 53 50
55 0 9 -12 -1 -54 -44z"/>
<path d="M2270 458 c0 -7 9 -24 19 -37 24 -31 39 -10 17 24 -18 27 -36 33 -36
13z"/>
<path d="M2440 450 c0 -5 6 -10 14 -10 8 0 18 5 21 10 3 6 -3 10 -14 10 -12 0
-21 -4 -21 -10z"/>
<path d="M2490 452 c0 -4 5 -13 10 -18 8 -8 6 -15 -6 -25 -16 -12 -17 -12 -11
3 4 12 2 15 -9 11 -7 -3 -14 -7 -14 -9 0 -2 17 -39 39 -82 21 -42 44 -92 51
-109 7 -18 16 -33 20 -33 10 0 1 40 -13 58 -7 8 -5 12 6 12 8 0 17 -10 20 -22
4 -12 9 -19 13 -15 4 3 -1 18 -10 32 -9 14 -14 30 -11 35 3 6 2 10 -4 10 -5 0
-15 -8 -20 -17 -10 -17 -12 -14 -15 19 -2 19 48 20 61 1 7 -9 13 -12 13 -6 0
7 -5 15 -10 18 -6 4 -8 10 -5 15 3 5 1 11 -5 15 -5 3 -10 12 -10 18 0 7 12 -1
27 -18 25 -28 25 -28 18 -5 -20 67 -45 99 -82 109 -46 13 -53 13 -53 3z m40
-58 c0 -9 -5 -12 -12 -8 -7 4 2 -6 21 -23 30 -26 31 -29 12 -29 -13 0 -20 5
-17 13 5 12 -1 15 -21 12 -10 -1 -25 30 -18 41 10 16 35 12 35 -6z"/>
<path d="M7300 435 c-22 -55 -50 -138 -50 -149 1 -6 16 27 35 74 19 47 33 90
31 95 -2 6 -9 -3 -16 -20z"/>
<path d="M2170 433 c0 -29 12 -63 21 -63 5 0 5 8 2 18 -6 15 -5 15 10 3 26
-21 33 -4 11 26 -25 33 -44 40 -44 16z"/>
<path d="M2781 385 c-10 -44 -10 -59 -1 -70 7 -8 17 -12 22 -9 6 4 5 9 -2 14
-7 4 -9 13 -6 19 14 21 26 0 22 -37 -2 -20 1 -66 9 -102 l12 -65 4 65 4 65 22
-60 23 -60 -6 55 c-4 30 -10 65 -15 78 -5 13 -9 31 -9 40 0 21 18 -12 54 -99
37 -91 32 -37 -5 62 -28 73 -87 159 -109 159 -4 0 -12 -25 -19 -55z m52 5 c3
-11 1 -20 -4 -20 -5 0 -9 4 -9 9 0 5 -3 17 -7 27 -4 11 -3 15 4 11 6 -4 13
-16 16 -27z"/>
<path d="M6736 432 c-3 -5 9 -31 25 -58 40 -62 36 -59 55 -43 16 13 16 12 4
-7 -10 -17 -10 -25 4 -52 9 -17 16 -47 16 -67 0 -32 9 -46 60 -98 60 -60 78
-68 65 -27 -4 12 -13 19 -23 18 -10 -2 -18 5 -20 17 -2 11 -15 32 -29 47 -18
18 -27 41 -30 75 -2 26 -11 65 -20 85 -13 31 -19 36 -30 26 -11 -9 -15 -7 -20
10 -3 12 -9 19 -14 16 -5 -3 -9 -1 -9 5 0 5 7 14 15 18 8 5 11 13 7 19 -10 16
-49 27 -56 16z m149 -272 c3 -5 1 -10 -4 -10 -6 0 -11 5 -11 10 0 6 2 10 4 10
3 0 8 -4 11 -10z"/>
<path d="M490 389 c-64 -45 -69 -55 -39 -64 17 -6 27 -2 40 16 10 13 28 37 40
52 12 15 20 30 18 32 -2 2 -29 -14 -59 -36z"/>
<path d="M2621 395 c27 -49 49 -74 49 -57 0 11 -7 21 -50 72 -21 24 -21 24 1
-15z"/>
<path d="M2132 393 c16 -38 28 -51 28 -29 0 22 -18 56 -30 56 -6 0 -5 -12 2
-27z"/>
<path d="M2967 378 c18 -31 47 -106 72 -188 9 -30 10 -26 6 32 -3 37 -8 75
-12 85 -4 11 -3 14 6 9 18 -12 32 -52 46 -141 l13 -80 1 88 c1 56 -4 100 -13
122 -8 19 -11 35 -6 35 15 0 41 -45 56 -97 l14 -48 -5 74 c-5 93 -23 122 -80
127 -22 2 -57 6 -79 9 l-38 6 19 -33z"/>
<path d="M5716 365 c9 -86 68 -338 80 -342 11 -4 -34 213 -71 341 l-14 51 5
-50z"/>
<path d="M2093 384 c-3 -8 -1 -25 5 -37 10 -20 11 -18 11 16 1 39 -5 48 -16
21z"/>
<path d="M6715 355 c11 -70 29 -145 37 -145 9 0 21 40 14 47 -3 4 -6 -2 -7
-13 0 -15 -2 -14 -10 6 -6 14 -8 36 -6 50 3 14 -3 40 -14 60 l-20 35 6 -40z"/>
<path d="M1335 345 c3 -22 9 -52 11 -66 4 -22 -2 -32 -34 -58 -22 -17 -45 -31
-51 -31 -6 0 -15 15 -20 33 -14 50 -13 13 3 -61 8 -37 17 -84 21 -105 l6 -38
52 3 52 3 1 105 c1 73 -4 126 -16 173 -20 78 -35 102 -25 42z"/>
<path d="M543 331 c-59 -17 -65 -27 -28 -41 20 -8 29 -4 55 22 17 17 30 31 28
32 -2 1 -27 -5 -55 -13z"/>
<path d="M2343 323 c8 -27 76 -185 82 -191 12 -12 4 21 -11 43 -9 13 -12 29
-8 36 4 8 15 -4 30 -32 13 -24 23 -38 24 -31 0 19 -40 95 -47 88 -7 -6 -32 24
-33 38 0 5 7 3 15 -4 20 -17 19 -8 -6 34 -22 37 -56 51 -46 19z"/>
<path d="M3355 321 c-3 -5 -1 -12 5 -16 5 -3 10 1 10 9 0 18 -6 21 -15 7z"/>
<path d="M6127 307 c-4 -13 -2 -50 3 -83 14 -86 12 -130 -6 -149 -9 -9 -14
-18 -11 -21 3 -3 15 9 27 26 21 30 22 40 17 132 -5 100 -19 142 -30 95z"/>
<path d="M1578 308 c-7 -4 -9 -8 -5 -8 5 0 1 -7 -7 -15 -9 -9 -21 -35 -27 -58
-6 -23 -18 -59 -26 -79 -9 -20 -13 -44 -9 -53 7 -19 -14 -55 -31 -55 -7 0 -13
7 -13 16 0 20 -16 9 -23 -16 -5 -19 0 -20 71 -20 l75 0 -20 22 c-30 34 -46 69
-36 79 5 5 24 -13 44 -44 l35 -52 73 -3 c67 -3 73 -1 66 15 -4 10 -16 41 -26
68 l-19 50 3 -48 c2 -52 1 -51 -41 9 -11 17 -12 16 -7 -11 l5 -30 -20 35 c-10
19 -22 56 -26 82 -6 42 -8 46 -25 35 -28 -17 -32 -4 -12 41 15 36 18 38 30 24
11 -15 12 -15 13 4 0 21 -19 27 -42 12z"/>
<path d="M2680 315 c0 -5 5 -17 10 -25 5 -8 10 -10 10 -5 0 6 -5 17 -10 25 -5
8 -10 11 -10 5z"/>
<path d="M3221 275 c0 -22 4 -60 8 -85 l8 -45 2 55 c2 69 16 51 28 -34 l8 -61
5 65 5 65 19 -50 c10 -27 20 -57 23 -65 12 -36 14 14 3 63 -15 61 -44 107 -69
107 -9 0 -22 5 -29 12 -9 9 -12 3 -11 -27z"/>
<path d="M6753 292 c0 -10 7 -19 13 -19 9 0 10 5 3 19 -5 10 -12 18 -14 18 -2
0 -3 -8 -2 -18z"/>
<path d="M439 249 c18 -24 56 -76 84 -116 29 -40 58 -75 66 -78 10 -4 10 1 -3
19 -28 43 -18 42 29 -4 25 -24 45 -42 45 -38 0 3 -19 31 -42 61 -24 31 -58 78
-77 104 -39 56 -67 79 -107 89 l-28 7 33 -44z"/>
<path d="M651 271 c-72 -16 -73 -17 -47 -30 23 -13 31 -12 79 9 96 44 88 49
-32 21z"/>
<path d="M3683 245 c0 -27 2 -38 4 -22 2 15 2 37 0 50 -2 12 -4 0 -4 -28z"/>
<path d="M2752 260 c0 -14 2 -19 5 -12 2 6 2 18 0 25 -3 6 -5 1 -5 -13z"/>
<path d="M2610 261 c0 -6 4 -13 10 -16 6 -3 7 1 4 9 -7 18 -14 21 -14 7z"/>
<path d="M6785 216 c0 -24 3 -48 8 -52 4 -4 8 -30 9 -58 1 -48 2 -49 6 -11 3
32 6 36 12 20 5 -12 6 3 3 35 -5 45 -26 110 -36 110 -1 0 -2 -20 -2 -44z"/>
<path d="M626 138 c102 -107 114 -118 114 -97 0 8 6 7 18 -4 23 -21 39 -22 22
-2 -16 19 -10 19 26 0 16 -8 36 -15 44 -15 12 0 12 2 -1 16 -9 8 -23 16 -33
18 -9 1 -31 16 -49 33 -34 33 -215 153 -230 153 -5 0 35 -46 89 -102z"/>
<path d="M791 220 c-9 -5 -5 -9 10 -13 28 -7 31 -6 14 10 -6 6 -18 8 -24 3z"/>
<path d="M5802 210 c0 -14 2 -19 5 -12 2 6 2 18 0 25 -3 6 -5 1 -5 -13z"/>
<path d="M5878 214 c-7 -10 6 -81 16 -91 8 -8 6 45 -3 77 -4 14 -10 20 -13 14z"/>
<path d="M6756 178 c4 -13 13 -45 20 -73 l12 -50 1 43 c1 24 -6 56 -14 72 -18
35 -29 40 -19 8z"/>
<path d="M2580 167 c-14 -8 -46 -19 -72 -25 -26 -7 -79 -28 -120 -47 -61 -29
-67 -34 -36 -30 20 3 39 1 43 -5 4 -6 17 -4 38 7 18 9 37 18 44 19 24 4 108
50 131 72 28 25 12 30 -28 9z"/>
<path d="M5819 180 c0 -3 -2 -13 -4 -22 -2 -10 3 -18 10 -18 10 0 14 -14 13
-50 -1 -28 4 -56 10 -62 18 -18 24 -4 11 28 -7 16 -11 38 -10 49 2 18 -27 90
-30 75z"/>
<path d="M3673 125 c0 -27 2 -38 4 -22 2 15 2 37 0 50 -2 12 -4 0 -4 -28z"/>
<path d="M6660 142 c0 -15 25 -40 48 -47 36 -10 25 23 -15 44 -26 13 -33 14
-33 3z"/>
<path d="M7196 93 c-3 -16 -8 -38 -12 -50 -5 -19 -2 -22 25 -21 28 1 30 3 24
27 -8 35 -22 71 -27 71 -2 0 -6 -12 -10 -27z"/>
<path d="M7406 111 c-4 -5 -13 -28 -21 -50 -13 -39 -13 -41 5 -41 15 0 20 10
26 45 6 45 2 66 -10 46z"/>
<path d="M6394 82 c-27 -16 -61 -36 -74 -45 l-24 -17 32 0 c24 0 31 4 26 13
-6 9 -4 9 7 0 22 -22 36 -15 68 32 17 25 27 45 23 45 -4 0 -30 -13 -58 -28z"/>
<path d="M6458 50 c-16 -29 -16 -30 2 -30 16 0 20 7 20 30 0 17 -1 30 -2 30
-2 0 -11 -14 -20 -30z"/>
<path d="M3662 40 c0 -14 2 -19 5 -12 2 6 2 18 0 25 -3 6 -5 1 -5 -13z"/>
<path d="M5881 34 c0 -11 3 -14 6 -6 3 7 2 16 -1 19 -3 4 -6 -2 -5 -13z"/>
<path d="M2620 30 c-13 -8 -13 -10 2 -10 9 0 20 5 23 10 8 13 -5 13 -25 0z"/>
</g>
</svg>
